<svg xmlns="http://www.w3.org/2000/svg" viewBox="0 0 400 313.86"><g id="ELEMENTS"><path d="M31.81,9.07,169.14,164.89a41.14,41.14,0,0,0,61.73,0l135-153.12a14.31,14.31,0,0,1,3.83-3A46.34,46.34,0,0,0,351,4.83H49A46.49,46.49,0,0,0,31.1,8.41C31.33,8.64,31.59,8.82,31.81,9.07Z"/><path d="M390.44,26.7a14.24,14.24,0,0,1-2.64,4.44l-135,153.13a70.45,70.45,0,0,1-105.69,0L9.82,28.44c-.27-.31-.47-.67-.71-1a46.36,46.36,0,0,0-6.73,24V262.39A46.65,46.65,0,0,0,49,309H351a46.64,46.64,0,0,0,46.64-46.64V51.47A46.35,46.35,0,0,0,390.44,26.7Z"/></g></svg>